# xmcd
#
# Track frame offsets:
#	150
#	12662
#	26495
#	41747
#
# Disc length: 775 seconds
#
# Revision: 1
# Processed by: cddbd v1.5.1PL2 Copyright (c) Steve Scherf et al.
# Submitted via: audiograbber 1.83.01
#
DISCID=2c030504
DTITLE=Hufnagel Country Band - Halleluja, alles klar!
DYEAR=1993
DGENRE=Country
TTITLE0=Rodeo
TTITLE1=Halleluja, alles klar
TTITLE2=Texastraum
TTITLE3=Kein Morgen
EXTD=Produziert von Peter Behrendt - 1993 Family Records
EXTT0=
EXTT1=
EXTT2=
EXTT3=
PLAYORDER=
